<svg xmlns="http://www.w3.org/2000/svg" fill="none" viewBox="0 0 48 48">
  <path fill="#0F68FF" d="M19.98 35.96c8.8255 0 15.98-7.1545 15.98-15.98C35.96 11.1545 28.8055 4 19.98 4 11.1545 4 4 11.1545 4 19.98c0 8.8255 7.1545 15.98 15.98 15.98Z" opacity=".4"/>
  <path fill="#0F68FF" d="M43.9402 31.98c0 6.6-5.36 11.96-11.96 11.96-4.08 0-7.66-2.04-9.82-5.14 8.72-.98 15.66-7.92 16.64-16.64 3.1 2.16 5.14 5.74 5.14 9.82ZM22.9 19.4199l-4.8-1.68c-.48-.16-.58-.2-.58-.9 0-.52.36-.94.82-.94h3c.64 0 1.16.58 1.16 1.3 0 .82.68 1.5 1.5 1.5s1.5-.68 1.5-1.5c0-2.3-1.78-4.18-4-4.28v-.1c0-.82-.68-1.5-1.5-1.5s-1.5.66-1.5 1.5v.1h-.18c-2.1 0-3.82 1.76-3.82 3.94 0 1.9.84 3.12 2.58 3.72l4.82 1.68c.48.16.58.2.58.9 0 .52-.36.94-.82.94h-3c-.64 0-1.16-.58-1.16-1.3 0-.82-.68-1.5-1.5-1.5s-1.5.68-1.5 1.5c0 2.3 1.78 4.18 4 4.28v.12c0 .82.68 1.5 1.5 1.5s1.5-.68 1.5-1.5v-.1h.18c2.1 0 3.82-1.76 3.82-3.94 0-1.9-.86-3.12-2.6-3.74Z"/>
</svg>