<svg xmlns="http://www.w3.org/2000/svg" fill="none" viewBox="0 0 40 40">
  <path fill="#C5AC62" d="M36.6663 37.9166H8.33301c-3.45 0-6.25-2.8-6.25-6.25V3.33325c0-.68333.56666-1.25 1.25-1.25.68333 0 1.25.56667 1.25 1.25V31.6666c0 2.0667 1.68333 3.75 3.75 3.75H36.6663c.6834 0 1.25.5667 1.25 1.25s-.5666 1.25-1.25 1.25Z"/>
  <path fill="#C5AC62" d="M8.33369 29.5834c-.28334 0-.58334-.1-.81667-.3-.51667-.45-.58333-1.2334-.13333-1.7667l7.65001-8.9333c.8333-.9667 2.0333-1.55 3.3-1.6 1.2667-.0334 2.5167.4333 3.4167 1.3333L23.3337 19.9c.4167.4167.95.6167 1.55.6167.5833-.0167 1.1167-.2833 1.5-.7333l7.65-8.9334c.45-.5166 1.2333-.5833 1.7667-.1333.5166.45.5833 1.2333.1333 1.7666l-7.65 8.9334c-.8333.9667-2.0333 1.55-3.3 1.6-1.2833.0333-2.5167-.4333-3.4167-1.3333L20.0004 20.1c-.4167-.4166-.9667-.6333-1.55-.6166-.5834.0166-1.1167.2833-1.5.7333L9.30035 29.15c-.26666.2833-.61666.4334-.96666.4334Z" opacity=".4"/>
</svg>
