<svg xmlns="http://www.w3.org/2000/svg" fill="none" viewBox="0 0 40 40">
  <path fill="#0F68FF" d="M33.0996 13.4834c0 .25.0001.5-.0166.7333-2.55-.95-5.55-.3666-7.55 1.4334-1.35-1.2167-3.1-1.9-4.9667-1.9-4.1 0-7.4333 3.35-7.4333 7.4833 0 4.7167 2.3667 8.1667 4.6333 10.4-.1833-.0167-.3333-.05-.4666-.1-4.3167-1.4833-13.96669-7.6167-13.96669-18.05 0-4.6 3.69998-8.31665 8.26669-8.31665 2.7166 0 5.1166 1.29998 6.6166 3.31665 1.5167-2.01667 3.9167-3.31665 6.6167-3.31665 4.5667 0 8.2666 3.71665 8.2666 8.31665Z" opacity=".4"/>
  <path fill="#0F68FF" d="M30.0002 15.9834c-1.7834 0-3.4001.8667-4.4001 2.2-1-1.3333-2.5999-2.2-4.3999-2.2-3.0334 0-5.5 2.4667-5.5 5.5333 0 1.1834.1833 2.2667.5167 3.2667 1.5666 4.95 6.3833 7.9 8.7666 8.7167.3333.1166.8834.1166 1.2334 0 2.3833-.8167 7.1999-3.7667 8.7666-8.7167.3333-1.0167.5167-2.1.5167-3.2667 0-3.0666-2.4667-5.5333-5.5-5.5333Z"/>
</svg>
