<svg xmlns="http://www.w3.org/2000/svg" fill="none" viewBox="0 0 48 48">
  <path fill="#C5AC62" d="M21.4998 4.90001c1.38-1.18 3.6399-1.18 5.0399 0l3.1601 2.71998c.6.52 1.7199.94006 2.5199.94006h3.4001c2.12 0 3.8599 1.73995 3.8599 3.85995v3.3999c0 .78.42 1.9201.94 2.5201l2.7201 3.16c1.18 1.38 1.18 3.64 0 5.04l-2.7201 3.1599c-.52.6-.94 1.7201-.94 2.5201v3.4c0 2.12-1.7399 3.86-3.8599 3.86h-3.4001c-.78 0-1.9199.42-2.5199.94l-3.1601 2.72c-1.38 1.18-3.6399 1.18-5.0399 0l-3.16-2.72c-.6-.52-1.72-.94-2.52-.94h-3.4601c-2.12 0-3.85994-1.74-3.85994-3.86v-3.4201c0-.78-.41998-1.9-.91998-2.5L4.87977 26.52c-1.16-1.38-1.16-3.62 0-5l2.70001-3.18c.5-.6.91998-1.72.91998-2.5v-3.42c0-2.12 1.73994-3.85995 3.85994-3.85995h3.4601c.78 0 1.92-.42006 2.52-.94006l3.16-2.71998Z" opacity=".4"/>
  <path fill="#C5AC62" d="M33.1609 22.14c-.38-.54-1.02-.84-1.78-.84h-3.9c-.26 0-.5-.1-.66-.3-.16-.2-.24-.46-.2-.74l.48-3.12c.2-.92-.42-1.9801-1.34-2.2801-.86-.32-1.88.12-2.28.72l-3.88 5.76v-.72c0-1.4-.6-1.9799-2.08-1.9799h-.98c-1.48 0-2.08.5799-2.08 1.9799V30.18c0 1.4.6 1.98 2.08 1.98h.98c1.4 0 2-.5401 2.06-1.8201l2.94 2.26c.4.4 1.3.62 1.94.62h3.7c1.28 0 2.56-.96 2.84-2.14l2.34-7.12c.26-.64.2-1.2999-.18-1.8199Z"/>
</svg>