<svg xmlns="http://www.w3.org/2000/svg" fill="none" viewBox="0 0 48 48">
  <path fill="#0F68FF" d="M35.0601 15.54c-.14-.02-.28-.02-.42 0-3.1-.1-5.56-2.64-5.56-5.76 0-3.18 2.58-5.78 5.78-5.78 3.18 0 5.78 2.58 5.78 5.78-.02 3.12-2.48 5.66-5.58 5.76Zm6.5191 13.8601c-2.24 1.5-5.38 2.0599-8.28 1.6799.76-1.64 1.16-3.4599 1.18-5.3799 0-2-.44-3.9-1.28-5.56 2.96-.4 6.1.16 8.36 1.66 3.16 2.08 3.16 5.5.02 7.6ZM12.8808 15.54c.14-.02.28-.02.42 0 3.1-.1 5.56-2.64 5.56-5.76 0-3.18-2.58-5.78-5.78-5.78-3.18002 0-5.78002 2.58-5.78002 5.78.02 3.12 2.48 5.66 5.58002 5.76Zm.2194 10.16c0 1.94.42 3.78 1.18 5.44-2.82.3-5.75997-.3-7.91997-1.72-3.16-2.1-3.16-5.5201 0-7.6201 2.14-1.44 5.15997-2.0199 7.99997-1.6999-.82 1.68-1.26 3.58-1.26 5.6Z" opacity=".4"/>
  <path fill="#0F68FF" d="M24.2396 31.74c-.16-.02-.34-.02-.52 0-3.68-.12-6.62-3.14-6.62-6.86 0-3.8 3.06-6.88 6.88-6.88 3.8 0 6.88 3.08 6.88 6.88 0 3.72-2.92 6.74-6.62 6.86Zm-6.5 4.14c-3.02 2.02-3.02 5.34 0 7.34 3.44 2.3 9.08 2.3 12.52 0 3.02-2.02 3.02-5.34 0-7.34-3.42-2.3-9.06-2.3-12.52 0Z"/>
</svg>