<svg xmlns="http://www.w3.org/2000/svg" fill="none" viewBox="0 0 40 40">
  <path fill="#C5AC62" d="M15.2806 4.16675c-4.1483 0-7.52083 3.3725-7.52083 7.52085 0 4.0691 3.18253 7.3625 7.33083 7.505.1267-.0159.2533-.0159.3483 0h.1109c4.0533-.1425 7.2358-3.4359 7.2516-7.505 0-4.14835-3.3725-7.52085-7.5208-7.52085Z" opacity=".4"/>
  <path fill="#C5AC62" d="M23.3238 23.4041c-4.4175-2.945-11.6217-2.945-16.07084 0-2.01084 1.3458-3.11917 3.1666-3.11917 5.1141 0 1.9475 1.10833 3.7525 3.10333 5.0825 2.21667 1.4884 5.12998 2.2325 8.04338 2.2325 2.9133 0 5.8266-.7441 8.0433-2.2325 1.995-1.3458 3.1033-3.1508 3.1033-5.1141-.0158-1.9475-1.1083-3.7525-3.1033-5.0825Z"/>
  <path fill="#C5AC62" d="M32.6821 12.6217c.2533 3.0716-1.9317 5.7633-4.9559 6.1275h-.0791c-.095 0-.19 0-.2692.0316-1.5358.0792-2.945-.4116-4.0058-1.3141 1.6308-1.4567 2.565-3.6417 2.375-6.0167-.1109-1.2825-.5542-2.45417-1.2192-3.45167.6017-.30083 1.2983-.49083 2.0108-.55417 3.1034-.26916 5.8742 2.0425 6.1434 5.17754Z" opacity=".4"/>
  <path fill="#C5AC62" d="M35.8483 27.2675c-.1267 1.5358-1.1083 2.8658-2.755 3.7683-1.5833.8708-3.5783 1.2825-5.5575 1.235 1.14-1.0292 1.805-2.3117 1.9317-3.6733.1583-1.9634-.7759-3.8475-2.6442-5.3517-1.0608-.8392-2.2958-1.5042-3.6417-1.995 3.4992-1.0133 7.9009-.3325 10.6084 1.8525 1.4566 1.1717 2.2008 2.6442 2.0583 4.1642Z"/>
</svg>
