<svg xmlns="http://www.w3.org/2000/svg" fill="none" viewBox="0 0 40 40">
  <path fill="#0F68FF" d="m25.6499 8.68325 2.35 4.70005c.3167.65 1.1667 1.2666 1.8833 1.4l4.2501.7c2.7166.45 3.35 2.4166 1.4 4.3833l-3.3167 3.3167c-.55.55-.8667 1.6333-.6833 2.4166l.9499 4.1c.75 3.2334-.9833 4.5-3.8333 2.8l-3.9833-2.3666c-.7167-.4334-1.9167-.4334-2.6333 0l-3.9834 2.3666c-2.85 1.6834-4.5833.4334-3.8333-2.8l.95-4.1c.1833-.7666-.1333-1.85-.6833-2.4166l-3.3167-3.3167c-1.95-1.95-1.31667-3.9167 1.4-4.3833l4.25-.7c.7166-.1167 1.5667-.75 1.8833-1.4l2.35-4.70005c1.25-2.55 3.3167-2.55 4.6 0Z"/>
  <path fill="#0F68FF" d="M13.333 9.58325H3.33301c-.68334 0-1.25-.56667-1.25-1.25s.56666-1.25 1.25-1.25H13.333c.6833 0 1.25.56667 1.25 1.25s-.5667 1.25-1.25 1.25ZM8.33301 32.9167h-5c-.68334 0-1.25-.5666-1.25-1.25 0-.6833.56666-1.25 1.25-1.25h5c.68333 0 1.25.5667 1.25 1.25 0 .6834-.56667 1.25-1.25 1.25ZM4.99967 21.25H3.33301c-.68334 0-1.25-.5667-1.25-1.25s.56666-1.25 1.25-1.25h1.66666c.68334 0 1.25.5667 1.25 1.25s-.56666 1.25-1.25 1.25Z" opacity=".4"/>
</svg>
