<svg xmlns="http://www.w3.org/2000/svg" width="1548" height="320" viewBox="0 0 1548 320" fill="none"><path d="M393.824 166.818V3.58887H439.922V130.264H517.548V166.951H393.824V166.818Z" fill="#18181A"/><path d="M535.564 166.818V3.58887H581.663V166.951H535.564V166.818Z" fill="#18181A"/><path d="M663.924 166.818L594.379 3.58887H644.186L702.736 145.019H673.461L733.468 3.58887H779.037L709.227 166.951H663.924V166.818Z" fill="#18181A"/><path d="M788.572 166.818V3.58887H863.018C877.854 3.58887 890.703 5.98148 901.433 10.7667C912.163 15.5519 920.508 22.5968 926.469 31.6356C932.298 40.6743 935.344 51.4411 935.344 63.9358C935.344 76.4305 932.43 86.7985 926.469 95.8373C920.508 104.876 912.295 111.655 901.433 116.307C890.571 120.96 877.854 123.485 863.018 123.485H814.138L834.538 104.078V166.818H788.439H788.572ZM834.67 108.997L814.27 87.729H860.368C870.038 87.729 877.192 85.6022 881.828 81.4816C886.464 77.361 888.981 71.5124 888.981 63.9358C888.981 56.3592 886.597 50.3777 881.828 46.2571C877.059 42.0035 869.906 40.0097 860.368 40.0097H814.27L834.67 18.7421V108.997ZM889.246 166.818L848.844 107.269H897.856L938.523 166.818H889.246Z" fill="#18181A"/><path d="M960.646 166.818V3.58887H1006.74V166.951H960.646V166.818Z" fill="#18181A"/><path d="M1120.53 170.141C1107.68 170.141 1095.76 168.014 1084.9 163.894C1074.04 159.773 1064.5 153.925 1056.55 146.215C1048.6 138.638 1042.38 129.6 1037.87 119.232C1033.37 108.864 1031.12 97.4324 1031.12 85.0706C1031.12 72.7088 1033.37 61.2774 1037.87 50.9094C1042.38 40.5415 1048.6 31.6356 1056.55 23.9261C1064.5 16.2166 1074.04 10.368 1084.9 6.24737C1095.76 2.12676 1107.68 0 1120.53 0C1135.63 0 1149.01 2.65846 1160.94 7.97537C1172.86 13.2923 1182.66 20.8689 1190.61 30.8381L1161.33 57.4227C1156.03 51.1753 1150.34 46.523 1143.98 43.1999C1137.75 39.8768 1130.73 38.2818 1122.92 38.2818C1116.29 38.2818 1110.07 39.3451 1104.51 41.6048C1098.94 43.8645 1094.17 46.9217 1090.2 51.0424C1086.23 55.163 1083.18 60.0811 1080.93 65.7968C1078.67 71.5125 1077.61 77.8928 1077.61 84.9377C1077.61 91.9826 1078.67 98.3629 1080.93 104.079C1083.18 109.794 1086.23 114.712 1090.2 118.833C1094.17 122.954 1098.94 126.144 1104.51 128.271C1110.07 130.397 1116.16 131.594 1122.92 131.594C1130.73 131.594 1137.62 129.999 1143.98 126.675C1150.34 123.352 1156.03 118.7 1161.33 112.453L1190.61 139.037C1182.66 148.874 1172.86 156.45 1160.94 161.767C1149.01 167.084 1135.63 169.875 1120.53 169.875V170.141Z" fill="#18181A"/><path d="M1257.1 166.818H1211.01V3.58887H1257.1V166.951V166.818ZM1323.07 103.148H1253.79V64.8663H1323.07V103.148ZM1319.76 3.58887H1365.86V166.951H1319.76V3.58887Z" fill="#18181A"/><path d="M1439.64 166.818V97.6982L1450.37 125.479L1377.52 3.58887H1426.13L1478.72 91.9825H1450.64L1503.36 3.58887H1548L1475.41 125.612L1485.61 97.8311V166.951H1439.51L1439.64 166.818Z" fill="#18181A"/><path d="M394.222 319.01V261.321H415.682C420.583 261.321 424.69 262.119 428.266 263.714C431.71 265.309 434.492 267.569 436.346 270.493C438.201 273.417 439.128 277.006 439.128 281.127C439.128 285.247 438.201 288.703 436.346 291.628C434.492 294.552 431.71 296.812 428.266 298.407C424.822 300.002 420.583 300.799 415.682 300.799H397.534L400.183 298.008V319.143H394.09L394.222 319.01ZM400.316 298.407L397.666 295.482H415.682C421.378 295.482 425.749 294.153 428.796 291.761C431.843 289.235 433.3 285.646 433.3 281.127C433.3 276.607 431.843 273.019 428.796 270.493C425.749 267.967 421.51 266.771 415.682 266.771H397.666L400.316 263.847V298.407ZM433.432 319.01L418.729 298.141H425.219L440.056 319.01H433.432Z" fill="#18181A"/><path d="M520.328 313.696H554.901V318.88H514.234V261.191H553.577V266.375H520.328V313.563V313.696ZM519.665 287.111H550V292.295H519.665V287.111Z" fill="#18181A"/><path d="M620.605 319.01L646.834 261.321H652.795L679.023 319.01H672.665L648.556 264.91H651.073L626.964 319.01H620.605ZM630.938 303.591L632.792 298.673H666.174L668.028 303.591H631.07H630.938Z" fill="#18181A"/><path d="M749.361 319.01V261.321H755.455V313.693H787.644V318.877H749.361V319.01Z" fill="#18181A"/><path d="M946.603 313.696H981.177V318.88H940.51V261.191H979.852V266.375H946.603V313.563V313.696ZM945.941 287.111H976.276V292.295H945.941V287.111Z" fill="#18181A"/><path d="M1071.92 319.413C1067.68 319.413 1063.57 318.748 1059.73 317.286C1055.75 315.824 1052.84 314.096 1050.72 311.836L1053.11 307.184C1055.09 309.178 1057.87 310.773 1061.32 312.102C1064.76 313.431 1068.34 314.096 1072.05 314.096C1075.76 314.096 1078.54 313.564 1080.92 312.767C1083.17 311.836 1084.9 310.64 1085.96 309.178C1087.02 307.716 1087.55 305.988 1087.55 304.127C1087.55 301.867 1086.88 300.139 1085.56 298.677C1084.23 297.348 1082.51 296.284 1080.53 295.354C1078.41 294.556 1076.15 293.892 1073.64 293.227C1071.12 292.562 1068.6 292.031 1066.09 291.233C1063.57 290.569 1061.19 289.638 1059.2 288.442C1057.21 287.246 1055.36 285.783 1054.16 283.923C1052.84 282.062 1052.18 279.536 1052.18 276.479C1052.18 273.687 1052.97 271.029 1054.43 268.636C1055.89 266.244 1058.27 264.383 1061.32 262.921C1064.36 261.459 1068.47 260.794 1073.24 260.794C1076.42 260.794 1079.73 261.326 1082.91 262.123C1086.09 263.054 1088.74 264.25 1091.12 265.845L1089 270.763C1086.62 269.168 1083.97 267.972 1081.19 267.174C1078.41 266.377 1075.76 265.978 1073.24 265.978C1069.8 265.978 1067.01 266.51 1064.76 267.44C1062.51 268.371 1060.79 269.567 1059.86 271.162C1058.8 272.757 1058.27 274.485 1058.27 276.479C1058.27 278.739 1058.93 280.467 1060.26 281.929C1061.58 283.258 1063.3 284.321 1065.29 285.119C1067.28 285.916 1069.66 286.581 1072.18 287.246C1074.7 287.91 1077.21 288.575 1079.73 289.239C1082.25 289.904 1084.5 290.835 1086.62 292.031C1088.74 293.094 1090.46 294.689 1091.65 296.55C1092.84 298.411 1093.64 300.804 1093.64 303.861C1093.64 306.652 1092.84 309.311 1091.39 311.703C1089.8 314.096 1087.55 315.957 1084.37 317.419C1081.19 318.881 1077.08 319.679 1072.18 319.679L1071.92 319.413Z" fill="#18181A"/><path d="M1177.49 319.011V266.639H1157.36V261.455H1203.72V266.639H1183.59V319.011H1177.49Z" fill="#18181A"/><path d="M1262.14 319.01L1288.37 261.321H1294.33L1320.56 319.01H1314.2L1290.09 264.91H1292.47L1268.36 319.01H1262.01H1262.14ZM1272.47 303.591L1274.33 298.673H1307.71L1309.56 303.591H1272.47Z" fill="#18181A"/><path d="M1399.11 319.011V266.639H1378.97V261.455H1425.34V266.639H1405.2V319.011H1399.11Z" fill="#18181A"/><path d="M1501.77 313.696H1536.34V318.88H1495.68V261.191H1535.02V266.375H1501.77V313.563V313.696ZM1501.11 287.111H1531.44V292.295H1501.11V287.111Z" fill="#18181A"/><path d="M0 31.8967V60.7409H107.827L215.655 60.8738L217.377 61.5384C230.358 66.3237 230.358 84.0024 217.377 88.7876L215.655 89.4522H151.011L86.3679 89.5851V146.875L143.593 189.942L200.819 233.009H242.28H283.742L227.974 190.075L172.206 147.141H195.652C221.086 146.875 220.556 146.875 227.179 145.546C267.979 137.172 292.75 95.4337 281.093 54.8923C273.807 29.3711 252.48 9.83147 226.12 4.64748C219.894 3.45117 228.769 3.58409 109.417 3.45117H0V31.8967ZM0.132466 204.165V319.01H284.14V261.986H57.7552V89.4522H0.264932V204.298" fill="#B7A05C"/></svg>