<svg width="147" height="30" viewBox="0 0 147 30" fill="none" xmlns="http://www.w3.org/2000/svg">
<path opacity="0.6" d="M12.637 4.99969C12.537 5.37469 12.4995 5.78719 12.4995 6.24969V9.9997H6.24951V7.4997C6.24951 6.12469 7.37451 4.99969 8.74951 4.99969H12.637Z" fill="#C5AC62"/>
<path d="M12.4995 23.7503V10.0003H6.24951C3.74951 10.0003 2.49951 11.2503 2.49951 13.7503V23.7503C2.49951 26.2503 3.74951 27.5003 6.24951 27.5003H16.2495C13.7495 27.5003 12.4995 26.2503 12.4995 23.7503ZM8.43701 21.2503C8.43701 21.7628 8.01201 22.1878 7.49951 22.1878C6.98701 22.1878 6.56201 21.7628 6.56201 21.2503V16.2503C6.56201 15.7378 6.98701 15.3128 7.49951 15.3128C8.01201 15.3128 8.43701 15.7378 8.43701 16.2503V21.2503Z" fill="#C5AC62"/>
<path opacity="0.4" d="M17.5007 27.5003H16.2507C13.7507 27.5003 12.5007 26.2503 12.5007 23.7503V6.25031C12.5007 3.75031 13.7507 2.50031 16.2507 2.50031H23.7507C26.2507 2.50031 27.5007 3.75031 27.5007 6.25031V23.7503C27.5007 26.2503 26.2507 27.5003 23.7507 27.5003H22.5007" fill="#C5AC62"/>
<path d="M22.4995 22.5003V27.5003H17.4995V22.5003C17.4995 21.8128 18.062 21.2503 18.7495 21.2503H21.2495C21.937 21.2503 22.4995 21.8128 22.4995 22.5003Z" fill="#C5AC62"/>
<path d="M17.4998 17.1876C16.9873 17.1876 16.5623 16.7626 16.5623 16.2501V10.0001C16.5623 9.48762 16.9873 9.06262 17.4998 9.06262C18.0123 9.06262 18.4373 9.48762 18.4373 10.0001V16.2501C18.4373 16.7626 18.0123 17.1876 17.4998 17.1876Z" fill="#C5AC62"/>
<path d="M22.5 17.1878C21.9875 17.1878 21.5625 16.7628 21.5625 16.2503V10.0003C21.5625 9.48781 21.9875 9.06281 22.5 9.06281C23.0125 9.06281 23.4375 9.48781 23.4375 10.0003V16.2503C23.4375 16.7628 23.0125 17.1878 22.5 17.1878Z" fill="#C5AC62"/>
<path d="M33.6292 22.2382V6.81506H42.1978C43.2717 6.81506 44.2039 6.98166 44.9944 7.31488C45.7848 7.63223 46.3964 8.13205 46.8289 8.81435C47.2614 9.48078 47.4777 10.3376 47.4777 11.3849C47.4777 12.083 47.3658 12.686 47.1421 13.1938C46.9184 13.6856 46.6052 14.0903 46.2025 14.4076C45.7998 14.725 45.3299 14.9709 44.793 15.1455C44.271 15.32 43.7117 15.4311 43.1151 15.4787L42.8913 15.3121C43.8459 15.3279 44.6364 15.4231 45.2628 15.5977C45.8892 15.7563 46.3665 16.0658 46.6947 16.5259C47.0228 16.9702 47.1868 17.6287 47.1868 18.5014V22.2382H44.6588V18.6442C44.6588 18.0413 44.5544 17.5732 44.3456 17.24C44.1517 16.8909 43.8086 16.6529 43.3164 16.5259C42.8391 16.3831 42.1531 16.3117 41.2582 16.3117H36.1796V22.2382H33.6292ZM36.1796 14.0982H42.1978C43.0927 14.0982 43.7713 13.8602 44.2337 13.3842C44.6961 12.9081 44.9272 12.2814 44.9272 11.5039C44.9272 10.7581 44.6961 10.1869 44.2337 9.7902C43.7713 9.37764 43.0927 9.17137 42.1978 9.17137H36.1796V14.0982Z" fill="#18181A"/>
<path d="M57.9225 18.3348H60.3163C60.197 19.144 59.8987 19.866 59.4214 20.5007C58.9591 21.1195 58.3252 21.6114 57.5198 21.9764C56.7144 22.3255 55.7523 22.5 54.6337 22.5C53.366 22.5 52.2324 22.2541 51.2331 21.7622C50.2338 21.2544 49.4508 20.5404 48.884 19.6201C48.3172 18.6998 48.0339 17.6049 48.0339 16.3355C48.0339 15.082 48.3098 13.9871 48.8616 13.051C49.4135 12.1148 50.1742 11.3928 51.1436 10.885C52.128 10.3773 53.2615 10.1234 54.5442 10.1234C55.8717 10.1234 56.9754 10.3773 57.8554 10.885C58.7503 11.3769 59.414 12.1227 59.8465 13.1224C60.279 14.1061 60.458 15.3517 60.3834 16.8591H50.5619C50.6365 17.5256 50.8379 18.1285 51.166 18.668C51.509 19.1916 51.9714 19.6042 52.5531 19.9057C53.1348 20.1913 53.8134 20.3341 54.589 20.3341C55.454 20.3341 56.1774 20.1516 56.7591 19.7867C57.3557 19.4217 57.7435 18.9378 57.9225 18.3348ZM54.4771 12.2655C53.4629 12.2655 52.6277 12.5353 51.9714 13.0748C51.3151 13.5984 50.8901 14.2727 50.6962 15.0978H57.8777C57.8181 14.2093 57.4825 13.519 56.871 13.0272C56.2595 12.5194 55.4615 12.2655 54.4771 12.2655Z" fill="#18181A"/>
<path d="M65.9989 22.5C64.9847 22.5 64.0525 22.2382 63.2024 21.7146C62.3671 21.1909 61.696 20.469 61.1889 19.5487C60.6967 18.6125 60.4506 17.5414 60.4506 16.3355C60.4506 15.0978 60.7041 14.0189 61.2112 13.0986C61.7183 12.1624 62.4044 11.4325 63.2695 10.9089C64.1346 10.3852 65.104 10.1234 66.1779 10.1234C67.3711 10.1234 68.3182 10.4011 69.0192 10.9565C69.7202 11.5118 70.2199 12.2576 70.5182 13.1938C70.8165 14.1299 70.9656 15.1772 70.9656 16.3355C70.9656 16.9861 70.8761 17.6763 70.6971 18.4062C70.5182 19.1202 70.2348 19.7867 69.847 20.4055C69.4741 21.0243 68.967 21.5321 68.3257 21.9288C67.6992 22.3096 66.9237 22.5 65.9989 22.5ZM66.7596 20.3103C67.5948 20.3103 68.3033 20.1437 68.885 19.8105C69.4816 19.4614 69.929 18.9854 70.2273 18.3824C70.5405 17.7794 70.6971 17.0971 70.6971 16.3355C70.6971 15.4945 70.5405 14.7805 70.2273 14.1934C69.9141 13.5904 69.4667 13.1303 68.885 12.8129C68.3033 12.4797 67.5948 12.3131 66.7596 12.3131C65.5664 12.3131 64.6417 12.686 63.9854 13.4318C63.3291 14.1775 63.001 15.1455 63.001 16.3355C63.001 17.113 63.1576 17.8032 63.4708 18.4062C63.799 19.0092 64.2464 19.4773 64.8132 19.8105C65.38 20.1437 66.0288 20.3103 66.7596 20.3103ZM70.6971 10.3852H73.2029V22.2382H70.8761C70.8761 22.2382 70.8612 22.0874 70.8314 21.786C70.8015 21.4845 70.7717 21.1195 70.7419 20.6911C70.7121 20.2468 70.6971 19.8263 70.6971 19.4297V10.3852Z" fill="#18181A"/>
<path d="M74.5903 5.625H77.0736V22.2382H74.5903V5.625Z" fill="#18181A"/>
<path d="M85.0232 15.6691V19.9057H95.2026V22.2382H82.4727V6.81506H95.1803V9.14757H85.0232V13.4318H93.3457V15.6691H85.0232Z" fill="#18181A"/>
<path d="M95.8745 18.3348H98.1789C98.2982 18.9378 98.604 19.4297 99.0962 19.8105C99.5883 20.1754 100.252 20.3579 101.087 20.3579C101.624 20.3579 102.042 20.2944 102.34 20.1675C102.653 20.0406 102.87 19.866 102.989 19.6439C103.123 19.4217 103.19 19.1678 103.19 18.8822C103.19 18.5331 103.093 18.2634 102.899 18.073C102.72 17.8826 102.452 17.7239 102.094 17.597C101.736 17.47 101.289 17.359 100.752 17.2638C100.2 17.1209 99.6555 16.9623 99.1185 16.7877C98.5816 16.6132 98.0969 16.399 97.6643 16.1451C97.2318 15.8754 96.8887 15.5421 96.6352 15.1455C96.3965 14.7329 96.2772 14.2331 96.2772 13.646C96.2772 13.1065 96.3891 12.6225 96.6128 12.1941C96.8514 11.7498 97.1796 11.3769 97.5972 11.0755C98.0148 10.774 98.507 10.5439 99.0738 10.3852C99.6405 10.2107 100.26 10.1234 100.931 10.1234C101.9 10.1234 102.706 10.29 103.347 10.6232C104.003 10.9565 104.495 11.4245 104.824 12.0275C105.167 12.6305 105.338 13.3207 105.338 14.0982H103.146C103.026 13.4635 102.795 13.0034 102.452 12.7177C102.109 12.4321 101.594 12.2893 100.908 12.2893C100.222 12.2893 99.7002 12.4163 99.3422 12.6701C98.9843 12.924 98.8053 13.2731 98.8053 13.7174C98.8053 14.0506 98.9172 14.3203 99.1409 14.5266C99.3795 14.717 99.7151 14.8836 100.148 15.0264C100.58 15.1693 101.087 15.3121 101.669 15.4549C102.206 15.6135 102.713 15.7801 103.19 15.9547C103.668 16.1134 104.093 16.3196 104.466 16.5735C104.853 16.8115 105.159 17.1289 105.383 17.5256C105.607 17.9223 105.718 18.4141 105.718 19.0012C105.718 19.7311 105.532 20.3579 105.159 20.8815C104.801 21.4051 104.279 21.8098 103.593 22.0954C102.907 22.3651 102.079 22.5 101.11 22.5C100.26 22.5 99.5212 22.3969 98.8948 22.1906C98.2833 21.9843 97.7687 21.7146 97.3511 21.3813C96.9484 21.0481 96.6352 20.6911 96.4115 20.3103C96.1877 19.9295 96.0311 19.5645 95.9416 19.2154C95.8671 18.8664 95.8447 18.5728 95.8745 18.3348Z" fill="#18181A"/>
<path d="M105.619 10.3852H113.494V12.5511H105.619V10.3852ZM108.304 7.19587H110.809V22.2382H108.304V7.19587Z" fill="#18181A"/>
<path d="M118.673 22.5C117.659 22.5 116.727 22.2382 115.876 21.7146C115.041 21.1909 114.37 20.469 113.863 19.5487C113.371 18.6125 113.125 17.5414 113.125 16.3355C113.125 15.0978 113.378 14.0189 113.885 13.0986C114.392 12.1624 115.078 11.4325 115.943 10.9089C116.809 10.3852 117.778 10.1234 118.852 10.1234C120.045 10.1234 120.992 10.4011 121.693 10.9565C122.394 11.5118 122.894 12.2576 123.192 13.1938C123.49 14.1299 123.64 15.1772 123.64 16.3355C123.64 16.9861 123.55 17.6763 123.371 18.4062C123.192 19.1202 122.909 19.7867 122.521 20.4055C122.148 21.0243 121.641 21.5321 121 21.9288C120.373 22.3096 119.598 22.5 118.673 22.5ZM119.434 20.3103C120.269 20.3103 120.977 20.1437 121.559 19.8105C122.156 19.4614 122.603 18.9854 122.901 18.3824C123.215 17.7794 123.371 17.0971 123.371 16.3355C123.371 15.4945 123.215 14.7805 122.901 14.1934C122.588 13.5904 122.141 13.1303 121.559 12.8129C120.977 12.4797 120.269 12.3131 119.434 12.3131C118.24 12.3131 117.316 12.686 116.659 13.4318C116.003 14.1775 115.675 15.1455 115.675 16.3355C115.675 17.113 115.832 17.8032 116.145 18.4062C116.473 19.0092 116.92 19.4773 117.487 19.8105C118.054 20.1437 118.703 20.3103 119.434 20.3103ZM123.371 10.3852H125.877V22.2382H123.55C123.55 22.2382 123.535 22.0874 123.505 21.786C123.476 21.4845 123.446 21.1195 123.416 20.6911C123.386 20.2468 123.371 19.8263 123.371 19.4297V10.3852Z" fill="#18181A"/>
<path d="M126.258 10.3852H134.133V12.5511H126.258V10.3852ZM128.942 7.19587H131.448V22.2382H128.942V7.19587Z" fill="#18181A"/>
<path d="M143.652 18.3348H146.046C145.926 19.144 145.628 19.866 145.151 20.5007C144.688 21.1195 144.054 21.6114 143.249 21.9764C142.444 22.3255 141.482 22.5 140.363 22.5C139.095 22.5 137.962 22.2541 136.962 21.7622C135.963 21.2544 135.18 20.5404 134.613 19.6201C134.047 18.6998 133.763 17.6049 133.763 16.3355C133.763 15.082 134.039 13.9871 134.591 13.051C135.143 12.1148 135.903 11.3928 136.873 10.885C137.857 10.3773 138.991 10.1234 140.273 10.1234C141.601 10.1234 142.705 10.3773 143.585 10.885C144.48 11.3769 145.143 12.1227 145.576 13.1224C146.008 14.1061 146.187 15.3517 146.113 16.8591H136.291C136.366 17.5256 136.567 18.1285 136.895 18.668C137.238 19.1916 137.701 19.6042 138.282 19.9057C138.864 20.1913 139.543 20.3341 140.318 20.3341C141.183 20.3341 141.907 20.1516 142.488 19.7867C143.085 19.4217 143.473 18.9378 143.652 18.3348ZM140.206 12.2655C139.192 12.2655 138.357 12.5353 137.701 13.0748C137.044 13.5984 136.619 14.2727 136.425 15.0978H143.607C143.547 14.2093 143.212 13.519 142.6 13.0272C141.989 12.5194 141.191 12.2655 140.206 12.2655Z" fill="#18181A"/>
</svg>
