<svg xmlns="http://www.w3.org/2000/svg" width="556" height="556" viewBox="0 0 556 556" fill="none"><rect width="556" height="556" rx="134" fill="#FFF7DF"/><path d="M193.203 326.975C192.651 326.975 192.203 327.423 192.203 327.975V398H235.333L234.876 327.968C234.872 327.419 234.426 326.975 233.876 326.975H193.203Z" fill="#EDD48D"/><path d="M320.739 326.975C320.187 326.975 319.739 327.423 319.739 327.975V398H362.87L362.412 327.968C362.409 327.419 361.962 326.975 361.412 326.975H320.739Z" fill="#EDD48D"/><path d="M277.536 213.242V398H319.739V327.975C319.739 327.423 320.187 326.975 320.739 326.975H361.412C361.962 326.975 362.409 327.419 362.412 327.968L362.87 398H403C404.657 398 406 396.657 406 395V224.333C406 217.297 402.912 210.614 397.552 206.054L351.554 166.918C345.527 161.79 336.658 161.838 330.687 167.029L277.536 213.242Z" fill="#EDD48D"/><path d="M158.187 206.071C152.984 210.628 150 217.209 150 224.125V398H192.203V327.975C192.203 327.423 192.651 326.975 193.203 326.975H233.876C234.426 326.975 234.872 327.419 234.876 327.968L235.333 398H277.536V213.242L223.598 167.02C217.557 161.843 208.63 161.891 202.645 167.133L158.187 206.071Z" fill="#EDD48D"/><path d="M150 398V224.125C150 217.209 152.984 210.628 158.187 206.071L202.645 167.133C208.63 161.891 217.557 161.843 223.598 167.02L277.536 213.242M150 398H277.536M150 398H192.203M277.536 213.242V398M277.536 213.242L330.687 167.029C336.658 161.838 345.527 161.79 351.554 166.918L397.552 206.054C402.912 210.614 406 217.297 406 224.333V395C406 396.657 404.657 398 403 398H362.87M277.536 398H319.739M277.536 398H235.333M318.812 242.023H363.333M318.812 270.805H363.333M319.739 398V327.975C319.739 327.423 320.187 326.975 320.739 326.975H361.412C361.962 326.975 362.409 327.419 362.412 327.968L362.87 398M319.739 398H362.87M192.203 398V327.975C192.203 327.423 192.651 326.975 193.203 326.975H233.876C234.426 326.975 234.872 327.419 234.876 327.968L235.333 398M192.203 398H235.333M190.812 242.023H235.333M190.812 270.805H235.333" stroke="#A98720" stroke-width="13" stroke-linecap="round"/></svg>