<svg xmlns="http://www.w3.org/2000/svg" width="556" height="556" viewBox="0 0 556 556" fill="none"><rect width="556" height="556" rx="134" fill="#FFF7DF"/><rect x="238.505" y="162.605" width="182.244" height="75.6032" rx="9" fill="#EDD48D"/><path d="M228.678 139.642C229.816 137.148 232.305 135.548 235.047 135.548H425.081C427.782 135.548 430.242 137.102 431.402 139.541L444.24 166.526C446.449 171.171 443.062 176.533 437.918 176.533H222.733C217.638 176.533 214.25 171.262 216.365 166.627L228.678 139.642Z" fill="#A98720"/><rect x="347.931" y="196.826" width="46.9536" height="14.3248" rx="7" fill="#A98720"/><rect x="264.369" y="196.826" width="46.9536" height="14.3248" rx="7" fill="#A98720"/><rect x="124.304" y="271.634" width="303.209" height="148.819" rx="9" fill="#EDD48D"/><path d="M118.303 254.562C120.003 250.445 124.017 247.759 128.471 247.759H427.531C432.102 247.759 436.197 250.586 437.817 254.86L445.407 274.886C447.143 279.466 443.759 284.367 438.861 284.367H116.462C111.477 284.367 108.09 279.304 109.992 274.696L118.303 254.562Z" fill="#A98720"/><rect x="152.953" y="322.566" width="46.9536" height="14.3248" rx="7" fill="#A98720"/><rect x="152.953" y="361.562" width="46.9536" height="14.3248" rx="7" fill="#A98720"/><rect x="229.353" y="322.566" width="46.9536" height="14.3248" rx="7" fill="#A98720"/><rect x="229.353" y="361.562" width="46.9536" height="14.3248" rx="7" fill="#A98720"/><path d="M328.831 359.808C328.831 355.942 331.965 352.808 335.831 352.808H368.785C372.651 352.808 375.785 355.942 375.785 359.808V420.453H328.831V359.808Z" fill="#A98720"/></svg>