<svg width="40" height="41" viewBox="0 0 40 41" fill="none" xmlns="http://www.w3.org/2000/svg">
<rect y="0.5" width="40" height="40" rx="15" fill="#FBF7EB"/>
<path d="M28.3332 29.4583H11.6665C11.3248 29.4583 11.0415 29.1749 11.0415 28.8333C11.0415 28.4916 11.3248 28.2083 11.6665 28.2083H28.3332C28.6748 28.2083 28.9582 28.4916 28.9582 28.8333C28.9582 29.1749 28.6748 29.4583 28.3332 29.4583Z" fill="#C5AC62"/>
<path opacity="0.4" d="M27.5002 18.8166V28.8333H12.4585L12.5002 18.8082C12.5002 18.2999 12.7335 17.8166 13.1418 17.4999L18.9752 12.9666C19.5752 12.4916 20.4252 12.4916 21.0252 12.9666L22.1418 13.8332L25.8335 16.6999L26.8585 17.4999C27.2668 17.8166 27.5002 18.2999 27.5002 18.8166Z" fill="#C5AC62"/>
<path d="M20.8332 24.6667H19.1665C18.4748 24.6667 17.9165 25.2251 17.9165 25.9167V28.8334H22.0832V25.9167C22.0832 25.2251 21.5248 24.6667 20.8332 24.6667Z" fill="#C5AC62"/>
<path d="M17.9165 21.9584H16.2498C15.7915 21.9584 15.4165 21.5834 15.4165 21.1251V19.8751C15.4165 19.4167 15.7915 19.0417 16.2498 19.0417H17.9165C18.3748 19.0417 18.7498 19.4167 18.7498 19.8751V21.1251C18.7498 21.5834 18.3748 21.9584 17.9165 21.9584Z" fill="#C5AC62"/>
<path d="M23.75 21.9584H22.0833C21.625 21.9584 21.25 21.5834 21.25 21.1251V19.8751C21.25 19.4167 21.625 19.0417 22.0833 19.0417H23.75C24.2083 19.0417 24.5833 19.4167 24.5833 19.8751V21.1251C24.5833 21.5834 24.2083 21.9584 23.75 21.9584Z" fill="#C5AC62"/>
<path d="M25.8333 16.6999L22.1416 13.8333H24.9833C25.4416 13.8333 25.8166 14.1999 25.8166 14.6582L25.8333 16.6999Z" fill="#C5AC62"/>
</svg>
