<svg width="40" height="41" viewBox="0 0 40 41" fill="none" xmlns="http://www.w3.org/2000/svg">
<rect y="0.5" width="40" height="40" rx="15" fill="#FBF7EB"/>
<path opacity="0.4" d="M23.4915 12.1667H16.5082C13.4748 12.1667 11.6665 13.9751 11.6665 17.0084V23.9834C11.6665 27.0251 13.4748 28.8334 16.5082 28.8334H23.4832C26.5165 28.8334 28.3248 27.0251 28.3248 23.9917V17.0084C28.3332 13.9751 26.5248 12.1667 23.4915 12.1667Z" fill="#C5AC62"/>
<path d="M21.8835 20.5L20.6251 20.0583V17.2333H20.9251C21.6001 17.2333 22.1501 17.825 22.1501 18.55C22.1501 18.8917 22.4335 19.175 22.7751 19.175C23.1168 19.175 23.4001 18.8917 23.4001 18.55C23.4001 17.1333 22.2918 15.9833 20.9251 15.9833H20.6251V15.5C20.6251 15.1583 20.3418 14.875 20.0001 14.875C19.6585 14.875 19.3751 15.1583 19.3751 15.5V15.9833H18.8335C17.6001 15.9833 16.5918 17.025 16.5918 18.3C16.5918 19.7917 17.4585 20.2667 18.1168 20.5L19.3751 20.9417V23.7583H19.0751C18.4001 23.7583 17.8501 23.1667 17.8501 22.4417C17.8501 22.1 17.5668 21.8167 17.2251 21.8167C16.8835 21.8167 16.6001 22.1 16.6001 22.4417C16.6001 23.8583 17.7085 25.0083 19.0751 25.0083H19.3751V25.5C19.3751 25.8417 19.6585 26.125 20.0001 26.125C20.3418 26.125 20.6251 25.8417 20.6251 25.5V25.0167H21.1668C22.4001 25.0167 23.4085 23.975 23.4085 22.7C23.4001 21.2 22.5335 20.725 21.8835 20.5ZM18.5335 19.325C18.1085 19.175 17.8501 19.0333 17.8501 18.3083C17.8501 17.7167 18.2918 17.2417 18.8418 17.2417H19.3835V19.625L18.5335 19.325ZM21.1668 23.7667H20.6251V21.3833L21.4668 21.675C21.8918 21.825 22.1501 21.9667 22.1501 22.6917C22.1501 23.2833 21.7085 23.7667 21.1668 23.7667Z" fill="#C5AC62"/>
</svg>
