<svg xmlns="http://www.w3.org/2000/svg" fill="none"><path d="M6.75 4.5V5h.75c.7 0 1.184.199 1.493.507C9.3 5.816 9.5 6.3 9.5 7v6c0 .7-.199 1.184-.507 1.493C8.684 14.8 8.2 15 7.5 15h-.75v7c0 .134-.116.25-.25.25a.256.256 0 0 1-.25-.25v-7H5.5c-.7 0-1.184-.199-1.493-.507C3.7 14.184 3.5 13.7 3.5 13V7c0-.7.199-1.184.507-1.493C4.316 5.2 4.8 5 5.5 5h.75V2c0-.134.116-.25.25-.25s.25.116.25.25v2.5ZM17.75 8.5V9h.75c.7 0 1.184.199 1.493.507.308.309.507.792.507 1.493v6c0 .7-.199 1.184-.507 1.493-.309.308-.792.507-1.493.507h-.75v3c0 .134-.116.25-.25.25a.256.256 0 0 1-.25-.25v-3h-.75c-.7 0-1.184-.199-1.493-.507C14.7 18.184 14.5 17.7 14.5 17v-6c0-.7.199-1.184.507-1.493C15.316 9.2 15.8 9 16.5 9h.75V2c0-.134.116-.25.25-.25s.25.116.25.25v6.5Z"/></svg>