<svg xmlns="http://www.w3.org/2000/svg" fill="none" viewBox="0 0 20 20">
  <path stroke-linecap="round" stroke-linejoin="round" stroke-width="1.5" d="M12.9833 9.99993c0 1.64997-1.3334 2.98337-2.98337 2.98337-1.65 0-2.98333-1.3334-2.98333-2.98337 0-1.65 1.33333-2.98333 2.98333-2.98333 1.64997 0 2.98337 1.33333 2.98337 2.98333Z"/>
  <path stroke-linecap="round" stroke-linejoin="round" stroke-width="1.5" d="M10.0001 16.8913c2.9417 0 5.6833-1.7334 7.5917-4.7334.75-1.175.75-3.14996 0-4.32496-1.9084-3-4.65-4.73333-7.5917-4.73333-2.94165 0-5.68332 1.73333-7.59165 4.73333-.75 1.175-.75 3.14996 0 4.32496 1.90833 3 4.65 4.7334 7.59165 4.7334Z"/>
</svg>
