<svg xmlns="http://www.w3.org/2000/svg" fill="none" viewBox="0 0 16 17"><path d="M5.337 8.04a2.668 2.668 0 1 1 5.336 0 2.668 2.668 0 0 1-5.336 0Zm-1.442 0a4.11 4.11 0 1 0 8.22 0 4.11 4.11 0 0 0-8.22.001V8.04Zm7.422-4.273a.96.96 0 1 0 1.921 0 .96.96 0 0 0-1.92 0ZM4.771 14.558c-.78-.035-1.204-.165-1.487-.275a2.482 2.482 0 0 1-.92-.6 2.503 2.503 0 0 1-.6-.92c-.11-.282-.24-.706-.275-1.486-.038-.844-.046-1.098-.046-3.236s.008-2.392.046-3.236c.036-.781.167-1.204.276-1.486.146-.374.319-.64.599-.922.28-.28.547-.453.92-.6.283-.11.707-.24 1.487-.274.844-.04 1.097-.047 3.234-.047 2.136 0 2.39.01 3.235.047.78.036 1.204.166 1.487.276.373.144.64.318.92.598.28.28.453.547.6.92.109.283.24.707.274 1.488.039.844.047 1.098.047 3.236 0 2.137-.008 2.39-.047 3.236-.036.78-.166 1.204-.276 1.487-.145.373-.318.64-.598.92-.28.28-.547.453-.92.6-.283.11-.707.24-1.487.274-.844.04-1.097.047-3.235.047s-2.39-.008-3.234-.046ZM4.704.083C3.852.12 3.271.256 2.761.455a3.915 3.915 0 0 0-1.417.922c-.445.446-.72.894-.924 1.419-.197.51-.333 1.092-.372 1.944C.008 5.593 0 5.867 0 8.04c0 2.173.01 2.447.048 3.301.04.852.173 1.434.373 1.943.203.527.478.973.923 1.419.445.445.89.718 1.417.924.51.197 1.091.333 1.943.372.853.038 1.127.048 3.301.048 2.174 0 2.447-.01 3.3-.048.852-.04 1.434-.174 1.943-.373a3.914 3.914 0 0 0 1.419-.923c.445-.446.717-.892.922-1.419.198-.51.334-1.09.372-1.943.039-.854.048-1.126.048-3.3 0-2.175-.009-2.449-.049-3.302-.04-.853-.173-1.435-.372-1.944a3.938 3.938 0 0 0-.921-1.419 3.916 3.916 0 0 0-1.418-.922c-.51-.2-1.093-.334-1.944-.374-.853-.037-1.126-.048-3.3-.048-2.173 0-2.446.01-3.301.05Z"/></svg>