<svg xmlns="http://www.w3.org/2000/svg" fill="none" viewBox="0 0 24 24"><path d="M0 12C0 5.373 5.373 0 12 0s12 5.373 12 12-5.373 12-12 12S0 18.627 0 12Z"/><path fill="#fff" d="M9.24 16.863V10.38H7.085v6.483H9.24ZM8.162 9.495c.75 0 1.218-.498 1.218-1.12-.014-.636-.467-1.12-1.203-1.12-.737 0-1.219.484-1.219 1.12 0 .622.468 1.12 1.19 1.12h.014Zm2.268 7.368h2.153v-3.62c0-.193.014-.387.07-.526.156-.387.51-.788 1.105-.788.78 0 1.091.595 1.091 1.466v3.468h2.153v-3.717c0-1.991-1.062-2.918-2.479-2.918-1.16 0-1.671.65-1.954 1.092h.014v-.94H10.43c.028.608 0 6.483 0 6.483Z"/></svg>
