<svg xmlns="http://www.w3.org/2000/svg" fill="none" viewBox="0 0 20 20">
  <path fill="#C5AC62" d="M17.1834 7.04158c-.875-3.84999-4.2333-5.58333-7.1833-5.58333h-.00835c-2.94167 0-6.30834 1.725-7.18334 5.575-.975 4.30005 1.65834 7.94165 4.04167 10.23335.88333.85 2.01667 1.275 3.15002 1.275 1.1333 0 2.2666-.425 3.1416-1.275 2.3834-2.2917 5.0167-5.925 4.0417-10.22502Z" opacity=".4"/>
  <path fill="#C5AC62" d="M10 11.2166c1.4497 0 2.625-1.1753 2.625-2.62505 0-1.44974-1.1753-2.625-2.625-2.625-1.44975 0-2.625 1.17526-2.625 2.625 0 1.44975 1.17525 2.62505 2.625 2.62505Z"/>
</svg>
