<svg xmlns="http://www.w3.org/2000/svg" fill="none" viewBox="0 0 21 20">
  <path fill="#0F68FF" d="M14.1585 1.66675H7.17516c-3.03333 0-4.84166 1.80833-4.84166 4.84166v6.97499c0 3.0417 1.80833 4.85 4.84166 4.85h6.97504c3.0333 0 4.8416-1.8083 4.8416-4.8417V6.50841c.0084-3.03333-1.8-4.84166-4.8333-4.84166Z" opacity=".4"/>
  <path fill="#0F68FF" d="m12.55 10-1.2584-.44167v-2.825h.3c.675 0 1.225.59167 1.225 1.31667 0 .34167.2834.625.625.625.3417 0 .625-.28333.625-.625 0-1.41667-1.1083-2.56667-2.475-2.56667h-.3V5c0-.34167-.2833-.625-.625-.625-.3416 0-.625.28333-.625.625v.48333h-.54163C8.26663 5.48333 7.2583 6.525 7.2583 7.8c0 1.49167.86667 1.96667 1.525 2.2l1.2583.4417v2.8166h-.29997c-.675 0-1.225-.5916-1.225-1.3166 0-.3417-.28333-.625-.625-.625-.34166 0-.625.2833-.625.625 0 1.4166 1.10834 2.5666 2.475 2.5666h.29997V15c0 .3417.2834.625.625.625.3417 0 .625-.2833.625-.625v-.4833h.5417c1.2333 0 2.2417-1.0417 2.2417-2.3167-.0084-1.5-.875-1.975-1.525-2.2ZM9.19997 8.825c-.425-.15-.68334-.29167-.68334-1.01667 0-.59166.44167-1.06666.99167-1.06666h.5417V9.125l-.85003-.3Zm2.63333 4.4417h-.5417v-2.3834l.8417.2917c.425.15.6833.2917.6833 1.0167 0 .5916-.4416 1.075-.9833 1.075Z"/>
</svg>