<svg xmlns="http://www.w3.org/2000/svg" fill="none"><path stroke-miterlimit="10" stroke-width="1.5" d="M18.308 15.275c0 .3-.067.608-.209.908-.141.3-.325.584-.566.85-.409.45-.859.775-1.367.983-.5.209-1.042.317-1.625.317-.85 0-1.758-.2-2.717-.608a14.634 14.634 0 0 1-2.866-1.65 23.962 23.962 0 0 1-2.734-2.333A23.682 23.682 0 0 1 3.9 11.015c-.683-.95-1.233-1.9-1.633-2.841-.4-.95-.6-1.859-.6-2.725 0-.567.1-1.109.3-1.609.2-.508.517-.975.958-1.391.534-.525 1.117-.784 1.734-.784.233 0 .466.05.675.15.216.1.408.25.558.467l1.933 2.725c.15.208.259.4.334.583.075.175.116.35.116.509 0 .2-.058.4-.175.591a2.834 2.834 0 0 1-.466.592l-.634.658a.446.446 0 0 0-.133.334c0 .066.008.125.025.191.025.067.05.117.067.167.15.275.408.634.775 1.067.375.433.775.875 1.208 1.317.45.441.883.85 1.325 1.225.433.366.792.616 1.075.766.042.017.092.042.15.067a.575.575 0 0 0 .208.033c.142 0 .25-.05.342-.142l.633-.624a2.56 2.56 0 0 1 .6-.467 1.11 1.11 0 0 1 .592-.175c.158 0 .325.033.508.108.184.075.375.184.584.325l2.758 1.959c.217.15.367.324.458.533.084.208.134.416.134.65Z"/></svg>
