<svg xmlns="http://www.w3.org/2000/svg" fill="none" viewBox="0 0 16 16"><path d="m15.21 11.208-2.47-1.757a3.388 3.388 0 0 0-.625-.35c-.52-.216-1.04-.17-1.451.082-.216.112-.44.284-.67.514l-.527.498c-.164-.08-.44-.26-.864-.618a18.742 18.742 0 0 1-1.147-1.056c-.36-.372-.71-.754-1.048-1.146a5.72 5.72 0 0 1-.61-.827.348.348 0 0 1-.023-.05l.506-.53c.216-.216.387-.43.499-.632a1.58 1.58 0 0 0 .237-.819c0-.216-.052-.44-.148-.662a2.884 2.884 0 0 0-.357-.632L4.785.789a1.703 1.703 0 0 0-.714-.602A2.013 2.013 0 0 0 3.23 0c-.7 0-1.355.283-1.928.848a3.98 3.98 0 0 0-.998 1.444A4.504 4.504 0 0 0 0 3.937c0 .84.193 1.734.58 2.656.365.864.879 1.756 1.519 2.65a22.152 22.152 0 0 0 2.136 2.5c.784.77 1.621 1.484 2.506 2.136.88.633 1.78 1.153 2.674 1.533.914.387 1.8.588 2.64.588.589 0 1.146-.112 1.66-.32a3.817 3.817 0 0 0 1.422-1.02c.246-.267.439-.557.595-.893.156-.334.239-.691.239-1.048 0-.262-.054-.522-.164-.804a1.6 1.6 0 0 0-.596-.707Zm-.482 2.068c-.112.239-.247.44-.417.625a2.747 2.747 0 0 1-1.02.738c-.982.409-2.174.282-3.446-.262a12.097 12.097 0 0 1-2.448-1.406 20.958 20.958 0 0 1-2.373-2.024A20.584 20.584 0 0 1 3.007 8.58a12.42 12.42 0 0 1-1.4-2.427c-.327-.773-.491-1.524-.491-2.216 0-.44.075-.849.23-1.236.15-.38.387-.729.73-1.049.365-.357.744-.536 1.153-.536.127 0 .254.03.374.083.11.052.2.125.274.23l1.727 2.44c.104.142.187.276.237.395a.692.692 0 0 1 .06.239.477.477 0 0 1-.081.253 2.206 2.206 0 0 1-.336.416l-.557.58a.956.956 0 0 0-.283.693c0 .104.013.2.059.372l.089.223c.157.29.41.64.76 1.05.379.44.744.833 1.108 1.205.47.461.856.818 1.213 1.124a6.47 6.47 0 0 0 1.058.752l.2.089a1.062 1.062 0 0 0 1.08-.224l.565-.557c.148-.15.283-.262.432-.336.253-.156.32-.088.483-.022.126.052.261.127.409.231l2.47 1.756a.572.572 0 0 1 .21.223.9.9 0 0 1 .081.373c0 .193-.044.387-.133.573v-.001ZM10.232 3.72c.41 0 .893.276 1.333.745.446.476.714 1.035.714 1.303 0 .304.253.557.558.557a.563.563 0 0 0 .559-.557c0-.596-.403-1.407-1.02-2.07-.663-.706-1.421-1.093-2.144-1.093a.563.563 0 0 0-.557.558c0 .305.253.558.557.558V3.72Zm0-2.604a4.653 4.653 0 0 1 4.652 4.652c0 .304.253.557.557.557A.562.562 0 0 0 16 5.768 5.778 5.778 0 0 0 10.232 0a.563.563 0 0 0-.557.559c0 .304.253.557.557.557Z"/></svg>
