<svg xmlns="http://www.w3.org/2000/svg" fill="none" viewBox="0 0 24 24"><path d="M0 12C0 5.373 5.373 0 12 0s12 5.373 12 12-5.373 12-12 12S0 18.627 0 12Z"/><path fill="#fff" d="M15.766 8.552a2.687 2.687 0 0 1-.233-.136 3.266 3.266 0 0 1-.596-.506 2.813 2.813 0 0 1-.672-1.387h.002c-.05-.3-.03-.494-.026-.494h-2.026v7.833c0 .105 0 .21-.005.312 0 .013 0 .025-.002.039v.021a1.72 1.72 0 0 1-.866 1.366 1.691 1.691 0 0 1-.838.22c-.944 0-1.71-.769-1.71-1.72a1.714 1.714 0 0 1 2.236-1.636l.002-2.063a3.763 3.763 0 0 0-2.9.848 3.999 3.999 0 0 0-.867 1.07c-.086.148-.408.74-.447 1.702-.025.545.139 1.11.217 1.345v.005c.05.137.24.607.55 1.002.25.318.546.597.878.828v-.005l.005.005c.98.667 2.068.623 2.068.623.188-.008.818 0 1.534-.34.795-.376 1.247-.936 1.247-.936.289-.335.518-.717.68-1.129.182-.482.244-1.06.244-1.29V9.973c.024.014.351.23.351.23s.472.303 1.208.5c.528.14 1.239.17 1.239.17V8.86c-.25.027-.755-.051-1.273-.31Z"/></svg>
