<svg xmlns="http://www.w3.org/2000/svg" fill="none" viewBox="0 0 18 14"><path d="M16.943 1.933a6.679 6.679 0 0 1-1.654.472c.267-.045.658-.525.814-.72a3.04 3.04 0 0 0 .532-.984c0-.026.026-.064 0-.084a.092.092 0 0 0-.088 0 8.354 8.354 0 0 1-1.956.76.136.136 0 0 1-.138-.033 1.895 1.895 0 0 0-.17-.179 3.562 3.562 0 0 0-.935-.604 3.284 3.284 0 0 0-1.455-.24 3.52 3.52 0 0 0-1.384.38 3.587 3.587 0 0 0-1.093.928 3.515 3.515 0 0 0-.665 1.331c-.103.463-.115.94-.035 1.408 0 .08 0 .09-.067.08-2.71-.4-4.933-1.363-6.748-3.427-.08-.092-.122-.092-.186 0-.791 1.202-.407 3.103.581 4.042.133.126.27.248.413.361a3.39 3.39 0 0 1-1.298-.36c-.076-.05-.118-.024-.122.067a2.24 2.24 0 0 0 0 .381 3.453 3.453 0 0 0 2.127 2.753c.139.059.283.104.43.134-.42.082-.85.095-1.273.037-.092-.019-.125.03-.092.119.56 1.52 1.771 1.984 2.66 2.242.122.019.243.019.38.05l-.022.024c-.263.478-1.323.801-1.808.969a6.494 6.494 0 0 1-2.774.357c-.149-.022-.182-.018-.221 0-.037.019 0 .062.043.099a9.092 9.092 0 0 0 2.432 1.103c3.334.92 7.088.244 9.592-2.247 1.968-1.955 2.66-4.652 2.66-7.35 0-.103.125-.165.197-.218a6.506 6.506 0 0 0 1.303-1.361.4.4 0 0 0 .092-.274c0-.057 0-.046-.072-.016Z"/></svg>