<svg xmlns="http://www.w3.org/2000/svg" fill="none"><path stroke-linecap="round" stroke-linejoin="round" stroke-width="1.5" d="M15.116 18.017c-.733.216-1.6.316-2.617.316h-5c-1.016 0-1.883-.1-2.616-.316.183-2.167 2.408-3.875 5.116-3.875 2.709 0 4.934 1.708 5.117 3.875Z"/><path stroke-linecap="round" stroke-linejoin="round" stroke-width="1.5" d="M12.5 1.667h-5c-4.167 0-5.834 1.666-5.834 5.833v5c0 3.15.95 4.875 3.217 5.517.183-2.167 2.408-3.875 5.116-3.875 2.709 0 4.934 1.708 5.117 3.875 2.267-.642 3.217-2.367 3.217-5.517v-5c0-4.167-1.667-5.833-5.834-5.833ZM10 11.808a2.987 2.987 0 0 1-2.984-2.991 2.98 2.98 0 0 1 2.983-2.984 2.98 2.98 0 0 1 2.984 2.984 2.988 2.988 0 0 1-2.984 2.991Z"/><path stroke-linecap="round" stroke-linejoin="round" stroke-width="1.5" d="M12.984 8.817a2.987 2.987 0 0 1-2.983 2.992 2.987 2.987 0 0 1-2.983-2.992A2.98 2.98 0 0 1 10 5.833a2.98 2.98 0 0 1 2.983 2.984Z"/></svg>
