<svg xmlns="http://www.w3.org/2000/svg" fill="none" viewBox="0 0 24 24"><path d="M0 12C0 5.373 5.373 0 12 0s12 5.373 12 12-5.373 12-12 12S0 18.627 0 12Z"/><path fill="#fff" d="M18.675 8.699a1.718 1.718 0 0 0-1.21-1.213C16.4 7.2 12.12 7.2 12.12 7.2s-4.276 0-5.345.286a1.718 1.718 0 0 0-1.21 1.213C5.28 9.768 5.28 12 5.28 12s0 2.232.285 3.301c.157.59.62 1.054 1.21 1.213 1.069.286 5.345.286 5.345.286s4.279 0 5.345-.286a1.718 1.718 0 0 0 1.21-1.213c.285-1.069.285-3.301.285-3.301s0-2.232-.285-3.301Z"/><path d="M10.754 14.057 14.307 12l-3.553-2.057v4.114Z"/></svg>
