<svg xmlns="http://www.w3.org/2000/svg" fill="none" viewBox="0 0 24 24">
  <path stroke="#C5AC62" stroke-linecap="round" stroke-linejoin="round" stroke-width="1.5" d="M9 5.83333c0-.61884-.26339-1.21233-.73223-1.64991C7.79893 3.74583 7.16304 3.5 6.5 3.5v0c-.66304 0-1.29893.24583-1.76777.68342C4.26339 4.621 4 5.21449 4 5.83333V10.5m-1 0h18m-3.5 8 .5 2m-11.5-2-.5 2m14-6v-4H4v4c0 1.0609.42143 2.0783 1.17157 2.8284C5.92172 18.0786 6.93913 18.5 8 18.5h8c1.0609 0 2.0783-.4214 2.8284-1.1716C19.5786 16.5783 20 15.5609 20 14.5Z"/>
</svg>