<svg xmlns="http://www.w3.org/2000/svg" fill="none" viewBox="0 0 24 24">
  <path stroke="#C5AC62" stroke-linecap="round" stroke-linejoin="round" stroke-width="1.5" d="M20.8889 18.5v-2.1667M3.11111 18.5v-2.1667m18.88889 0H2v-3.25c0-.2873.11706-.5628.32544-.766.20837-.2032.49099-.3173.78567-.3173H20.8889c.2947 0 .5773.1141.7857.3173.2083.2032.3254.4787.3254.766v3.25Zm-2.2222-9.74997c0-.28731-.1171-.56286-.3255-.76603-.2083-.20316-.4909-.3173-.7856-.3173H5.33333c-.29468 0-.5773.11414-.78567.3173-.20837.20317-.32544.47872-.32544.76603V12H19.7778V6.58333Z"/>
</svg>