<svg xmlns="http://www.w3.org/2000/svg" fill="none" viewBox="0 0 24 24">
  <path fill="#C5AC62" d="M12.0015 20.1764c-.719 0-1.438-.2558-1.9594-.766l-6.54577-6.4047c-1.04434-1.0219-1.04434-2.8142 0-3.83604l6.54417-6.40328c1.0444-1.02184 2.8761-1.02184 3.9205 0l6.5442 6.40328c1.0443 1.02184 1.0443 2.81414 0 3.83604l-6.5442 6.4032c-.5214.5102-1.2405.7661-1.9595.7661v.0014Zm0-16.68565c-.3314 0-.6612.11007-.8847.32723L4.57107 10.2213c-.44692.4372-.44692 1.2955 0 1.7328l6.54423 6.4032c.4469.4373 1.324.4373 1.7709 0l6.5443-6.4032c.4469-.4373.4469-1.2956 0-1.7328l-6.5443-6.40332c-.2234-.21865-.5548-.32723-.8847-.32723ZM7.57335 22c-.19458 0-.38916-.0729-.53813-.2172l-5.3129-5.1984c-.29643-.2901-.29643-.7616 0-1.0516.29643-.2901.77831-.2901 1.07474 0l5.3129 5.1984c.29642.2901.29642.7616 0 1.0516-.14898.1458-.34356.2172-.53813.2172h.00152Zm8.85485 0c-.1946 0-.3892-.0729-.5382-.2172-.2964-.29-.2964-.7615 0-1.0516l5.3129-5.1984c.2965-.2901.7784-.2901 1.0748 0 .2964.29.2964.7615 0 1.0516l-5.3129 5.1984c-.149.1458-.3436.2172-.5381.2172h.0015Z"/>
</svg>