<svg xmlns="http://www.w3.org/2000/svg" xmlns:xlink="http://www.w3.org/1999/xlink" version="1.1" width="285" height="316"><svg xmlns="http://www.w3.org/2000/svg" width="285" height="316" viewBox="0 0 285 316" fill="none"><path d="M0 28.4455V57.2897H107.827L215.655 57.4226L217.377 58.0873C230.358 62.8725 230.358 80.5512 217.377 85.3364L215.655 86.0011H151.011L86.3679 86.134V143.424L143.593 186.491L200.819 229.558H242.28H283.742L227.974 186.624L172.206 143.69H195.652C221.086 143.424 220.556 143.424 227.179 142.094C267.979 133.72 292.75 91.9826 281.093 51.4411C273.807 25.9199 252.48 6.38029 226.12 1.19631C219.894 1.9807e-07 228.769 0.132923 109.417 0H0V28.4455ZM0.132466 200.713V315.559H284.14V258.535H57.7552V86.0011H0.264932V200.846" fill="#B7A05C"/></svg><style>@media (prefers-color-scheme: light) { :root { filter: none; } }
@media (prefers-color-scheme: dark) { :root { filter: none; } }</style></svg>